<svg xmlns="http://www.w3.org/2000/svg" xmlns:xlink="http://www.w3.org/1999/xlink" width="50" zoomAndPan="magnify" viewBox="14 12 50 50" height="50" preserveAspectRatio="xMidYMid meet" version="1.0"><defs><clipPath id="d3dd2e259b"><path d="M 25 17.574219 L 37 17.574219 L 37 57.324219 L 25 57.324219 Z M 25 17.574219 " clip-rule="nonzero"/></clipPath><clipPath id="65ce868806"><path d="M 40 17.574219 L 51 17.574219 L 51 57.324219 L 40 57.324219 Z M 40 17.574219 " clip-rule="nonzero"/></clipPath></defs><g clip-path="url(#d3dd2e259b)"><path fill="#f0ffff" d="M 36.503906 22.226562 C 36.503906 21.039062 36.03125 19.902344 35.195312 19.0625 C 34.355469 18.222656 33.21875 17.75 32.03125 17.75 C 31.445312 17.75 30.828125 17.75 30.242188 17.75 C 29.054688 17.75 27.917969 18.222656 27.078125 19.0625 C 26.242188 19.902344 25.769531 21.039062 25.769531 22.226562 L 25.769531 52.667969 C 25.769531 53.855469 26.242188 54.992188 27.078125 55.832031 C 27.917969 56.671875 29.054688 57.144531 30.242188 57.144531 C 30.828125 57.144531 31.445312 57.144531 32.03125 57.144531 C 33.21875 57.144531 34.355469 56.671875 35.195312 55.832031 C 36.03125 54.992188 36.503906 53.855469 36.503906 52.667969 Z M 36.503906 22.226562 " fill-opacity="1" fill-rule="evenodd"/></g><g clip-path="url(#65ce868806)"><path fill="#f0ffff" d="M 50.8125 22.226562 C 50.8125 21.039062 50.34375 19.902344 49.503906 19.0625 C 48.664062 18.222656 47.527344 17.75 46.339844 17.75 C 45.757812 17.75 45.136719 17.75 44.550781 17.75 C 43.367188 17.75 42.230469 18.222656 41.390625 19.0625 C 40.550781 19.902344 40.082031 21.039062 40.082031 22.226562 L 40.082031 52.667969 C 40.082031 53.855469 40.550781 54.992188 41.390625 55.832031 C 42.230469 56.671875 43.367188 57.144531 44.550781 57.144531 C 45.136719 57.144531 45.757812 57.144531 46.339844 57.144531 C 47.527344 57.144531 48.664062 56.671875 49.503906 55.832031 C 50.34375 54.992188 50.8125 53.855469 50.8125 52.667969 Z M 50.8125 22.226562 " fill-opacity="1" fill-rule="evenodd"/></g></svg>