<svg xmlns="http://www.w3.org/2000/svg" xmlns:xlink="http://www.w3.org/1999/xlink" width="100" zoomAndPan="magnify" viewBox="0 0 75 74.999997" height="100" preserveAspectRatio="xMidYMid meet" version="1.0"><defs><clipPath id="efdbb249c6"><path d="M 4.007812 17.574219 L 42 17.574219 L 42 57.324219 L 4.007812 57.324219 Z M 4.007812 17.574219 " clip-rule="nonzero"/></clipPath><clipPath id="ed681b7492"><path d="M 45 17.574219 L 57 17.574219 L 57 57.324219 L 45 57.324219 Z M 45 17.574219 " clip-rule="nonzero"/></clipPath><clipPath id="3389e58846"><path d="M 59 17.574219 L 70.757812 17.574219 L 70.757812 57.324219 L 59 57.324219 Z M 59 17.574219 " clip-rule="nonzero"/></clipPath></defs><g clip-path="url(#efdbb249c6)"><path fill="#f0ffff" d="M 39.410156 33.496094 L 10.867188 18.273438 C 9.480469 17.53125 7.808594 17.574219 6.460938 18.386719 C 5.113281 19.195312 4.289062 20.648438 4.289062 22.222656 C 4.289062 29.804688 4.289062 45.089844 4.289062 52.671875 C 4.289062 54.246094 5.113281 55.699219 6.460938 56.507812 C 7.808594 57.320312 9.480469 57.363281 10.867188 56.621094 L 39.410156 41.398438 C 40.871094 40.621094 41.78125 39.101562 41.78125 37.449219 C 41.78125 35.792969 40.871094 34.273438 39.410156 33.496094 Z M 39.410156 33.496094 " fill-opacity="1" fill-rule="evenodd"/></g><g clip-path="url(#ed681b7492)"><path fill="#f0ffff" d="M 56.164062 22.226562 C 56.164062 21.039062 55.695312 19.902344 54.855469 19.0625 C 54.015625 18.222656 52.878906 17.75 51.695312 17.75 C 51.109375 17.75 50.488281 17.75 49.90625 17.75 C 48.71875 17.75 47.582031 18.222656 46.742188 19.0625 C 45.902344 19.902344 45.433594 21.039062 45.433594 22.226562 L 45.433594 52.667969 C 45.433594 53.855469 45.902344 54.992188 46.742188 55.832031 C 47.582031 56.671875 48.71875 57.144531 49.90625 57.144531 C 50.488281 57.144531 51.109375 57.144531 51.695312 57.144531 C 52.878906 57.144531 54.015625 56.671875 54.855469 55.832031 C 55.695312 54.992188 56.164062 53.855469 56.164062 52.667969 Z M 56.164062 22.226562 " fill-opacity="1" fill-rule="evenodd"/></g><g clip-path="url(#3389e58846)"><path fill="#f0ffff" d="M 70.476562 22.226562 C 70.476562 21.039062 70.003906 19.902344 69.167969 19.0625 C 68.328125 18.222656 67.191406 17.75 66.003906 17.75 C 65.417969 17.75 64.800781 17.75 64.214844 17.75 C 63.027344 17.75 61.890625 18.222656 61.050781 19.0625 C 60.214844 19.902344 59.742188 21.039062 59.742188 22.226562 L 59.742188 52.667969 C 59.742188 53.855469 60.214844 54.992188 61.050781 55.832031 C 61.890625 56.671875 63.027344 57.144531 64.214844 57.144531 C 64.800781 57.144531 65.417969 57.144531 66.003906 57.144531 C 67.191406 57.144531 68.328125 56.671875 69.167969 55.832031 C 70.003906 54.992188 70.476562 53.855469 70.476562 52.667969 Z M 70.476562 22.226562 " fill-opacity="1" fill-rule="evenodd"/></g></svg>