<svg xmlns="http://www.w3.org/2000/svg" xmlns:xlink="http://www.w3.org/1999/xlink" width="50" zoomAndPan="magnify" viewBox="20 12 35 50" height="50" preserveAspectRatio="xMidYMid meet" version="1.0"><defs><clipPath id="6368d7de6e"><path d="M 18.167969 17.574219 L 56 17.574219 L 56 57.324219 L 18.167969 57.324219 Z M 18.167969 17.574219 " clip-rule="nonzero"/></clipPath></defs><g clip-path="url(#6368d7de6e)"><path fill="#f0ffff" d="M 53.566406 33.496094 L 25.023438 18.273438 C 23.636719 17.53125 21.964844 17.574219 20.617188 18.386719 C 19.273438 19.195312 18.449219 20.648438 18.449219 22.222656 C 18.449219 29.804688 18.449219 45.089844 18.449219 52.671875 C 18.449219 54.246094 19.273438 55.699219 20.617188 56.507812 C 21.964844 57.320312 23.636719 57.363281 25.023438 56.621094 L 53.566406 41.398438 C 55.027344 40.621094 55.9375 39.101562 55.9375 37.449219 C 55.9375 35.792969 55.027344 34.273438 53.566406 33.496094 Z M 53.566406 33.496094 " fill-opacity="1" fill-rule="evenodd"/></g></svg>